/* XPM */
static char *_a5bdcc625f343ddb6bfd99931cd4a69[] = {
/* columns rows colors chars-per-pixel */
"16 16 8 1 ",
"  c #343434",
". c #373737",
"X c #3F3F3F",
"o c gray27",
"O c #686868",
"+ c #747474",
"@ c gray50",
"# c gray56",
/* pixels */
"@++++@##O#@++++@",
"@@######+###O@@+",
"@O++.+++#+@@X.@@",
"@#@@@O@X.@+++++@",
"@##+++++++#####O",
"++@@@oX+@OoX++O@",
"##@oX...@@. ###O",
"@@@++++++O++++@@",
"+X.O#+@@oX######",
"@++++++X   +++#@",
"@@#+.##+O+###@@@",
"O@@@+@@@##@X ##O",
"@+++++++XoX.. +@",
"@#+X @@++  +@@##",
"@@@+++++@@##@++@",
"++++O##@@@@+++@@"
};
