/* XPM */
static char *d4bf6ed633844151e25623732111d3b0[] = {
/* columns rows colors chars-per-pixel */
"32 32 186 2 ",
"   c black",
".  c #1E1E01",
"X  c #0B0B11",
"o  c #0C0C11",
"O  c #260000",
"+  c #2E0000",
"@  c #212101",
"#  c #252500",
"$  c #2F2F00",
"%  c #101022",
"&  c #161622",
"*  c #070733",
"=  c #0A0A33",
"-  c #470000",
";  c #500000",
":  c #590000",
">  c #740000",
",  c #4A2222",
"<  c #6F2222",
"1  c #114111",
"2  c #154315",
"3  c #194419",
"4  c #204420",
"5  c #244424",
"6  c #2B442B",
"7  c #2F442F",
"8  c #374436",
"9  c #394439",
"0  c #4B4C00",
"q  c #5B5C00",
"w  c #575811",
"e  c #777700",
"r  c #424222",
"t  c #4B4B22",
"y  c #717222",
"u  c #030244",
"i  c #090944",
"p  c #0E0D44",
"a  c #151544",
"s  c #191944",
"d  c #202044",
"f  c #242444",
"g  c #282855",
"h  c #3B3B55",
"j  c #050477",
"k  c #101077",
"l  c #252666",
"z  c #303066",
"x  c #363666",
"c  c #5B5B45",
"v  c #444455",
"b  c #4B774C",
"n  c #6B6B56",
"m  c #797967",
"M  c #7C7C66",
"N  c #840000",
"B  c #A00000",
"V  c #B00000",
"C  c #B51111",
"Z  c #CB0000",
"A  c #D40000",
"S  c #DD0000",
"D  c #DF1111",
"F  c #F60000",
"G  c #FE0000",
"H  c #DC5555",
"J  c #F84444",
"K  c #2A862A",
"L  c #2EB32E",
"P  c #2FB42F",
"I  c #33B633",
"U  c #32C332",
"Y  c #3BE43B",
"T  c #3FF43F",
"R  c #758675",
"E  c #44DA44",
"W  c #40F540",
"Q  c #46F846",
"!  c #4FFB4F",
"~  c #5CFE5C",
"^  c #78FF78",
"/  c #878700",
"(  c #808011",
")  c #A3A300",
"_  c #B3B300",
"`  c #BDBD22",
"'  c #CECE00",
"]  c #D6D600",
"[  c #D7D700",
"{  c #A7A744",
"}  c #828266",
"|  c #8B8B77",
" . c #9FA077",
".. c #ADAD66",
"X. c #B6B677",
"o. c #E4E455",
"O. c #CECE77",
"+. c #050588",
"@. c #131288",
"#. c #1B1B88",
"$. c #292A88",
"%. c #323288",
"&. c #0706AA",
"*. c #0101BB",
"=. c #0707BB",
"-. c #1A19BB",
";. c #3334AA",
":. c #3E3FAA",
">. c #2525BB",
",. c #3839BB",
"<. c #404088",
"1. c #494988",
"2. c #6D6D88",
"3. c #717188",
"4. c #4445BB",
"5. c #5858BB",
"6. c #6464BB",
"7. c #7777BB",
"8. c #0201CC",
"9. c #0201DD",
"0. c #0201EE",
"q. c #0201FF",
"w. c #0A09FF",
"e. c #302FEE",
"r. c #2322FF",
"t. c #3332FF",
"y. c #6D6DCC",
"u. c #4849EE",
"i. c #4D4EFF",
"p. c #5D5EFF",
"a. c #7878FF",
"s. c #819880",
"d. c #9E9E88",
"f. c #AD8888",
"g. c #B2B388",
"h. c #8383BB",
"j. c #9696BB",
"k. c #9B9BBB",
"l. c #B5B5AA",
"z. c #D6AAAA",
"x. c #F1AAAA",
"c. c #E6BBBB",
"v. c #88FF88",
"b. c #A1FFA2",
"n. c #B1FFB2",
"m. c #D4D488",
"M. c #DCDC88",
"N. c #ECEC88",
"B. c #E6E6AA",
"V. c #EFEFAA",
"C. c #8282CC",
"Z. c #B8B8DD",
"A. c #8888FF",
"S. c #A2A2FF",
"D. c #B2B2FF",
"F. c #DACCCC",
"G. c #D2D2CC",
"H. c #D5D5CC",
"J. c #DBDBCC",
"K. c #EFCCCC",
"L. c #F5CCCC",
"P. c #FDCCCC",
"I. c #ECDDDD",
"U. c #FADDDD",
"Y. c #CDFFCC",
"T. c #D7FED6",
"R. c #DCFCDB",
"E. c #DFFBDE",
"W. c #E7E7CC",
"Q. c #EDEDCC",
"!. c #F5F5CC",
"~. c #E2E2DD",
"^. c #E7E7DD",
"/. c #EDEDDD",
"(. c #F5F5DD",
"). c #FAFADD",
"_. c #CCCCFF",
"`. c #D5D5FF",
"'. c #F1EEEE",
"]. c #F6EEEE",
"[. c #F9EEEE",
"{. c #FEEEEE",
"}. c #F0F0EE",
"|. c #F4F4EE",
" X c #F9F9EE",
".X c white",
/* pixels */
"                                .X.X.X.X.X.X.X.X.X.X.X.X.X.X.X.X",
"  G G G G G G G G G G G G G G   .XE.E.R.T.Y.n.b.v.^ ~ ! Q W T .X",
"  F {..X.X.XJ F F F P..X.X.XF   .XE.E.R.T.Y.n.b.v.^ ~ ! Q W T .X",
"  S {..X.X.XU.D S S L..X.X.XS   .XE.9 9 9 8 7 6 5 4 3 2 1 1 U .X",
"  A {..X.X.X.Xx.A A L..X.X.XA   .XE.                        P .X",
"  Z [..X.X.X.X.XH Z L..X.X.XZ   .XE.                        L .X",
"  V [..X.X.X.X.X[.C K..X.X.XV   .XE.                        L .X",
"  B [..X.X.X.X.X.Xc.K..X.X.XB   .XE.    9 Y.n.6     ~ K     L .X",
"  N [..X.X].z..X.X.X]..X.X.XN   .XE.    9 Y.n.6     ~ K     L .X",
"  > ]..X.X].> I..X.X.X.X.X.X>   .XE.    9 Y.n.6     ~ K     L .X",
"  : ]..X.X'.: < .X.X.X.X.X.X:   .XE.    9 Y.n.6     ~ K     L .X",
"  ; '..X.X].; ; f..X.X.X.X.X;   .XE.    9 Y.n.6     ~ K     L .X",
"  - '..X.X'.- - - F..X.X.X.X-   .XE.    9 Y.n.b 5 4 ~ K     L .X",
"  + '..X.X'.+ + + , '..X.X.X+   .XE.R R s.Y.n.b.v.^ ~ E I P Y .X",
"  O O O O O O O O O O O O O O   .XE.E.R.T.Y.n.b.v.^ ~ ! Q W T .X",
"                                .X.X.X.X.X.X.X.X.X.X.X.X.X.X.X.X",
".X.X.X.X.X.X.X.X.X.X.X.X.X.X.X.X                                ",
".Xq.q.w.r.t.i.p.a.A.S.D._.`.`..X  . . . . . . . . . . . . . .   ",
".Xq.*.                    3.`..X  . . @ c G.}..X.X.X~.m . @ .   ",
".Xq.*.                    3.`..X  @ @ n .X.X.X.X.X.X.X.Xl.@ @   ",
".Xq.8.u i p a s d f &     3.`..X  # # ~..X.X}.M | }..X.X.Xr #   ",
".Xq.q.w.r.t.u.:.z %       3.`..X  $ $ .X.X.XH.t $ d..X}.}.} $   ",
".Xq.q.&.k =           o v k.`..X  0 0 J..X.X.X.X}.^. .w 0 0 0   ",
".Xq.*.          g 1.C.D._.`.`..X  q q y |..X.X.X.X.X.X.Xg.q q   ",
".Xq.*.        s <.y.S.D._.`.`..X  e e e ( X./..X.X.X.X.X.X..e   ",
".Xq.9.j *           X h 2.Z.`..X  / / / / / / / { W..X.X.XW./   ",
".Xq.q.w.r.e.;.l %         3.`..X  ) O. X.X.Xm.) ) ) .X.X.XQ.)   ",
".Xq.9.+.@.#.$.%.<.x &     3.`..X  _ ` .X.X.X.XB.M.(..X.X.XM._   ",
".Xq.*.                    3.`..X  ' ' V..X.X.X.X.X.X.X.X!.' '   ",
".Xq.*.                    3.`..X  ] ] ] o.)..X.X.X.X).N.] ] ]   ",
".Xq.0.=.-.>.,.4.5.6.7.h.j.Z.`..X  [ ] ] [ [ [ [ ] ] [ [ [ ] ]   ",
".X.X.X.X.X.X.X.X.X.X.X.X.X.X.X.X                                "
};
