/* XPM */
static char *a9d18f05a3594693c0be089c37b07545[] = {
/* columns rows colors chars-per-pixel */
"64 64 54 1 ",
"  c #010101",
". c gray2",
"X c #090909",
"o c gray5",
"O c gray7",
"+ c gray8",
"@ c #181818",
"# c gray11",
"$ c gray13",
"% c #272727",
"& c gray16",
"* c gray18",
"= c gray19",
"- c gray21",
"; c gray23",
": c #3E3E3E",
"> c gray26",
", c gray28",
"< c gray29",
"1 c gray31",
"2 c #505050",
"3 c #565656",
"4 c #5B5B5B",
"5 c gray36",
"6 c gray39",
"7 c #656565",
"8 c gray42",
"9 c #6F6F6F",
"0 c gray44",
"q c #747474",
"w c gray48",
"e c #7C7C7C",
"r c #838383",
"t c gray53",
"y c #8B8B8B",
"u c #8E8E8E",
"i c #929292",
"p c #959595",
"a c #989898",
"s c #9D9D9D",
"d c #A0A0A0",
"f c #A4A4A4",
"g c #A9A9A9",
"h c #AEAEAE",
"j c gray70",
"k c gray71",
"l c gray72",
"z c #BCBCBC",
"x c gray76",
"c c gray78",
"v c gray79",
"b c gray80",
"n c gray82",
"m c #D5D5D5",
/* pixels */
";=&-==-**==---**-=;>-*;;;==;>;:;==:>-*=-;;-*==&&&*===-&*-*=;=-:*",
"*=*=-*&**-==**-=-*&-==*=--=--:;%%**==;-**=*$&==%%&*=&%=*=-&;=;-$",
"**==*=*****&----=&&*=*&=**=*----*-*&-;----*=-=*=*==**%%====*&==&",
"*&%=&&*=-*&&&=****=*-=***-;==&&===&***-==*==-;&===*&$%#%=-**=*-*",
"=*==,22342<21<>:>>:,,,1<334323131:-:;<5111<<3541><,;**-=;;:=&=;=",
"-*==167q0998763143243239090q867761<<,589799q868643<;:>>>>,1;&*-=",
"-=-=<3689899761<34335689qewe08743112266867we7qq54<-::,,,,,<:--=*",
"*%%&>1468788642<242455w0eyrrtq841324137557weqr084:><<,,>>,,:=-*%",
"*&%&,2146787531,233880etrtyutq632454,<340rreqq08,,1131<<21<-%***",
"==**<512367543<,2350qrtuuttrw9542333<134qrrre005:1358873<<1-***&",
";-&*,331<3542<<466qertyryurwq97525433<11<2073453>,6q99961<3,==*&",
"**==:<221<1<,12679wrrewrryr09652<457662<,,22,>;>,18w99eq412,=;=&",
"**==:222412235658wwee0851<>:-*&&&&;:::<112552>:,1489wwre931:==-=",
"==&&>211224558990rt92;&$$%%$%&%%%*=&&**==;>221<13689wrww931,-*=&",
"=*&&:11<26434699w0<*##$&**-=**=&&=**=;;;;-=->3786260wtw0752>=&*&",
"-&%%>7633364679r6&@$&******&&%$$%$%%*=---;>>;>6ti74eryr9872:=&&*",
"=*&&2099855888w4$%*&=*%#@+oXX......XoO+#&=>>:,>19u08rtr856<;**&&",
"=-:-5970097789<#****$OX.      ....       o@=12<,1ry7w0883,,>**;=",
"-=-=5070989494$*==&+   ..................   #<5349w77654<;,<*==%",
"==&&28qe08975-*;;&X  .......X..............  o1967w7442>>12>*&=%",
";=**<79qwq881=;;=X ......X.........X..X...... O586eq2412233<*%&&",
"*&=*1867qt88<*;;@ ...X.X..X.XXXXXXXX.X.X...X.. *q6qu4352221:;-&&",
"**==<67890q8-*::o ...XX.XXXXXXXXXXXXXXX.XXX.X. +qwwi032331,=*;:*",
";*%&,6899805=:1:. X.XXXXXXXoXXXXXXXXXXXXX.XX.. owrtiy8685<>:-*=*",
"-*-=<7987963;><;X XXXoXXXXoooooooooooXXoXXXXXX .qiyat064542:===-",
"=-;-<7556521>:,:X.XXXXoooooooooooooooooooXoXXX oquruit53554,&->*",
"*-;=:1344312>>1:     .............X... ...      eprrqq43675<**=*",
"*--&;>><,<25>,<-oXOOO+++@@+@#@++@+++@@@+@+++OOXOwitr6532553,&%*&",
"=*&-><>>13431,-<0tuyuyteerrretttuyyyrrtterruuurw9qq021<2533<*%&&",
"-=*-,3423578<=,quassaapiyrtewippaspaittyyyippaaae9871:14422>&**%",
"**=-<3344465=>0ypsdspiiyytetteyipiiyyutertewreyiuw663342234,*;=&",
"*--=>1257753,0usghhddirewrityfhfsfayytrtreqq990ew9444433378,*==&",
"::-=:2236559tppapfatt06439w0ufpiyfgt08q065652,13125423334452=*==",
"--;;,333447euapaddptw86360qtttispyaaw0erq5775211136754576473:>:-",
"=*=-->,3350triuudpy08514660w8tuyw0uaauqeiw85452243232<14333,-:;-",
"===&=>><239wwwweww931,,33479eu0456quae88q981142112231<121<<>*&*&",
"--**edddfdgghfggddsdsdffffgjjgfddfgfffddfsdffggggfghghgdssfw===&",
":=**pczcvcxcvvcxccccccccvvccccvccczxxxxxzzvcvvvvbnbcvvvcxxcp==::",
";=**ulkklzzzzxxzzzllzzzzzlxccvbvccxzzzklllllxxxcxxzzxzzzllzu-&:;",
"=-*=uzlklzzxzzxxzzzlzxxxbnnczjhgfhkkxvvcxzzlxxxzzzzxzzzllllu--;&",
"=*&-ukkklzzxxxxzxxlzcbmchpw9532234570yahzvbxxlzzlllzzzllkzxu&*;&",
"*&*-yjhjlllzzzzlxlcmzsw5<;;>,111222222350ufzvzlzlkkkkkkkjkkt&%=*",
"=;**tjgjhjkzlllkzbzy3:;:,<,<<<1112223355446waxxjkjhhhhhjhhjr-*:-",
"*-&*rhggghkkkkkvxt1=:>,>>>>,::;-;:><133346767wajkhggfhhhhfgr;**&",
"&*%=rffggjhkhjcs3=;,>:::-&$@OOoXXXO+#%-,3556866edkgffggdfffe&%=*",
"-=&-egsdggfgkze;=>>::-&+o.. .......   .o#;3657970pggfdfgsafe%%**",
"-*=-wgddggfkk8*;>::-$O. .XoXXoXooXoXXXX   +-477999tggdffsage*==*",
"-=**egfggfjk5=>:::&O .XoXoooXoooooooooooXX  +,870qqyggddsffq-*-=",
"-;**egggfhk7=,::;@..XoXooooooooooooooooooXoo  *790eeihffddfe=&-=",
"*=--rgffhzq-,>:-O XooooooOoOOOOOOOOOOOoooooXo. #7wwyysjfgffe==;-",
":**=egdflp;>>>-o ooooooOOOOO+O++OO+OOOOOOoooooX +7wryugfdgdw*&;=",
"-=**tgfgj4:,,;O ooooOOOOO+++@+@++@@++++OOOOOoooo @0eyiagfdfr-*-*",
"====rffjr,2<,@ oooOO++++@@@@@#@##@@#@@@@+++OOOooo *rtpsfdddr*===",
"-=&*rgdg9<32*.oooOO+++@@#@#######$####@#@@+++OoOoX 3ipfgsddw*&-=",
"*=*&effs6222@ oOO++@@@####$$$$$$$$$$$$####@@@+OOoO &isgjdaaw*%=&",
"*%%=efgi655<OXoO++@@###$$$$$%$$%%$$%$$$$$$##@@++OO Opjkzsuaw*&=*",
"*&$&esdi7761oXO+@@##$#$$$$%$$%$%%$$%$$%$$$$##@@@+O.Oaxxcsua9*&=*",
"&*%%wsau765,Oo++@###$$$$%%$%%%%%%%%%%%$%$$$$$##@++X+ukkzatu8%%=&",
"&&$%0pit554,OO@@###$$$%%%$%%%%%%%%%%%%%%%$$$$##@@@o+yfhjiet8%%=&",
"%%%&8tuw333:++@@##$$%$%$%%%%%&%&%%&%%%$%%%$%$$$#@@o+rssgtqe6&&*%",
"*&%&6er0121:++@##$$$$%%%%%%%&%&%%&%%%%%$%$$$$$$##@O@wpiae9q4*%&%",
"&%$$5ww911<:++@#$#$$$$$$%%%%%%%&&%&%%%%%%$%$$$$##@O@0tuiq784%&=$",
"%%%#4q081<<:@+##$$$$$%%%%%%%%&&%%&%%%$%$$%%$$$$###O@9ttyq791%&*%",
"$$#$4007<<<,@+####$$%$$%$$%%%%%&%%%%%%%%%$$$$$#$#@O@wuyy0782%#$#"
};
