/* XPM */
static char *_61626c05bcb4ae0a68179443eb16c00[] = {
/* columns rows colors chars-per-pixel */
"16 16 134 2 ",
"   c #4D2409",
".  c #552609",
"X  c #562609",
"o  c #5F280B",
"O  c #672B0C",
"+  c #682B0C",
"@  c #6A2C0C",
"#  c #787919",
"$  c #797A1A",
"%  c #BB3D16",
"&  c #BD4016",
"*  c #BF4017",
"=  c #BF4217",
"-  c #81670D",
";  c #8D720F",
":  c #8D740F",
">  c #92790F",
",  c #957B0F",
"<  c #846D10",
"1  c #876D10",
"2  c #846814",
"3  c #886E10",
"4  c #8B6F10",
"5  c #8A6F14",
"6  c #847413",
"7  c #8A7110",
"8  c #8D7410",
"9  c #8F7510",
"0  c #8E7413",
"q  c #8C7214",
"w  c #887614",
"e  c #817917",
"r  c #8C7811",
"t  c #887914",
"y  c #80781B",
"u  c #807E19",
"i  c #827C1B",
"p  c #867E18",
"a  c #917610",
"s  c #917415",
"d  c #937614",
"f  c #947714",
"g  c #917811",
"h  c #937810",
"j  c #937B10",
"k  c #967910",
"l  c #977A10",
"z  c #957813",
"x  c #967D10",
"c  c #947C14",
"v  c #997E10",
"b  c #9A7F10",
"n  c #9A7E16",
"m  c #927618",
"M  c #937918",
"N  c #9D7D1D",
"B  c #927620",
"V  c #C04216",
"C  c #C24516",
"Z  c #C74C16",
"A  c #C84C17",
"S  c #C84D17",
"D  c #CA4E16",
"F  c #9F850F",
"G  c #8D8216",
"H  c #8E8515",
"J  c #81841A",
"K  c #8A8018",
"L  c #8F831A",
"P  c #9B8010",
"I  c #9B8110",
"U  c #9B8111",
"Y  c #9D8310",
"T  c #9E8310",
"R  c #938A17",
"E  c #958B16",
"W  c #9B8C14",
"Q  c #988D17",
"!  c #A1820F",
"~  c #A98D0C",
"^  c #AC900E",
"/  c #B2970E",
"(  c #A18111",
")  c #A18514",
"_  c #A58910",
"`  c #A48813",
"'  c #A48B12",
"]  c #A98D11",
"[  c #AA8814",
"{  c #AB8719",
"}  c #AC9110",
"|  c #AC9210",
" . c #AB9014",
".. c #AD9515",
"X. c #AF9816",
"o. c #AE941A",
"O. c #B39512",
"+. c #B69511",
"@. c #B79611",
"#. c #B19516",
"$. c #B59717",
"%. c #BB9711",
"&. c #B49912",
"*. c #B59D13",
"=. c #B89C11",
"-. c #BA9E12",
";. c #BC9F13",
":. c #BE961E",
">. c #B0991A",
",. c #BF9E1B",
"<. c #BAA012",
"1. c #BFA311",
"2. c #BDA012",
"3. c #BAA115",
"4. c #B7A01D",
"5. c #BCA01A",
"6. c #C4AC0F",
"7. c #DAB40F",
"8. c #C3A711",
"9. c #C4A510",
"0. c #C2A811",
"q. c #C8AF12",
"w. c #CBAF12",
"e. c #CCAE11",
"r. c #C2A41A",
"t. c #C8A818",
"y. c #CEAB1C",
"u. c #CCB011",
"i. c #CDB011",
"p. c #CCB211",
"a. c #CFB612",
"s. c #D4B212",
"d. c #D0B712",
"f. c #D5B712",
/* pixels */
"q <.p ~ 7 2 $ *.- &.e [ $ -.b %.",
"N 5.n H v ] G 8.7 t.f [ B 9.d L ",
"d U 3 x ; 8 4 U 3 ! k 8 5 v 4 b ",
"* Z D D Z D V C % D Z D A V % V ",
"+ + . . . +           @ + @ + + ",
"f h 8 / a h 7 Y 9 f , ( l ;.d h ",
":.O.' 7., @.^ -.] #./ e.] e.h s.",
",.@.3.s.} *.^ -.$.y._ d.` e.{ ;.",
"r.a...6.^ q.^ d...y.` p. .q.o.q.",
">.f.h 6. .p.h a...,.` p.F p.( q.",
"x U : F : <.7 U r c h U 5 Y ; > ",
"* D * V V D D S D = C C A C % C ",
"O @ @     o o     + . . . . O   ",
"6 8 8 a x h 1 t 3 d 8 7 d x 1 k ",
"J ^ W ' i t 9.Q M 0.@.R N R 1 %.",
"$ _ y ) # w ;.L m 2.$.J U H 1 %."
};
