/* XPM */
static char *_574784135416[] = {
/* columns rows colors chars-per-pixel */
"16 16 9 1 ",
"  c #382B1D",
". c #443321",
"X c #493824",
"o c #4F3C27",
"O c #534028",
"+ c #5D462A",
"@ c #664F2F",
"# c #785836",
"$ c #805E36",
/* pixels */
"$@@@@$$#@$$$$$$@",
"$$#+##@@@@@#@#$@",
"$$@@@@##+$$#$$$@",
"...XXXXXXX....XX",
"$@@@@$$@$@@O###$",
"@@O###$@####@@@@",
"$$$#$$$@@@O$$$$$",
"XX.....XXX....XX",
"$$$$$O@$$###$$$@",
"@@@@@$##@@@O$@@@",
"$###$$@@@@#####@",
"X.XX...XXXXX...X",
"$$$$$@$@@X@@#$$$",
"#@O$$$$@$##@@@@#",
"$$@@@$$@$$@#$$$$",
"XXXo..o.XXX. ..X"
};
