/* XPM */
static char *_913376466e44f6aeab897abafd9b4ff[] = {
/* columns rows colors chars-per-pixel */
"28 40 19 1 ",
"  c None",
". c black",
"X c #400000",
"o c #185868",
"O c #900000",
"+ c #E00000",
"@ c #C06830",
"# c #E09060",
"$ c navy",
"% c #0038C0",
"& c #0068F0",
"* c #60A0B0",
"= c #1888F0",
"- c #30A0F0",
"; c #68D0F0",
": c #F0B090",
"> c #A0E0E0",
", c #F0D0C0",
"< c gray94",
/* pixels */
"                            ",
"        &&&&&               ",
"    &&&&====-=&&            ",
"  %$%%%&&&&$%---=&    %     ",
"    $$$%%&%$@%-;--=& $%     ",
"       $$%$#:@%-;;--=$%     ",
"        %&$::#O&;;;;-=$     ",
"       &&&$#:---;;;;--&     ",
"     &&&%&&%-;-;&%-;;-=     ",
"   &&&&$%&&=;<;=<<&-;--=    ",
"  &&%%%$%&&--;-><<>&---%    ",
" &$$$$$$%&&=---><<<.&-=.    ",
"%$%%%$$.$&&=---><<<*.=&o    ",
"     %%.$%&&==-;<<<o.;.o    ",
"       %$%&&&&==<<<o.<.*    ",
"      &&$$%&&#,<-<<<<#*o.   ",
"    &&&%$$$%@,::,<<,,:...   ",
"   &&%%$$$$$@#:::::::#O     ",
"   &%$$$$$.$$@#::::#@O      ",
"  &%$%%$$$$.$$O@@@@OO       ",
"       %%%%$..$..OXX        ",
"         $$::#O%@##@O       ",
"        &::@OX$@:,::@       ",
"       &:#@$..%@::::#       ",
"       %#O$$><%O#::#@       ",
"      &$@<<*<*<%O@@O.o      ",
"      %$X>*<<<<%%%%$o*>     ",
"      $%%*o<<>>%$...o**     ",
"      $  o*<>**% .$o*oo     ",
"          o>**%  $$.oo      ",
"           oo$%  $%.o       ",
"            $%   $%         ",
"            $&   $%         ",
"          *><<< o**>>       ",
"          o**>> .oo*>       ",
"         X.o>OO>>o**O       ",
"         XOOO*><<+.Xo*>     ",
"        XOOO*>>++::+.XXOO   ",
"        XOO***++++++++O.XOO+",
"        X.....XXXXXXXXXX...X"
};
