/* XPM */
static char *_b61092d327a4fb981cb7a1e177ad037[] = {
/* columns rows colors chars-per-pixel */
"64 64 211 2 ",
"   c #010101",
".  c #060606",
"X  c #090A09",
"o  c #09090A",
"O  c gray4",
"+  c #0A0A0B",
"@  c #0B0B0B",
"#  c #0C0B0C",
"$  c #0C0C0C",
"%  c #111111",
"&  c #171716",
"*  c #272727",
"=  c #4D1607",
"-  c #561A09",
";  c #5E1C0A",
":  c #621A07",
">  c #6A1D07",
",  c #611E0B",
"<  c #641E0B",
"1  c #661F0C",
"2  c #6A1F0B",
"3  c #6D1F0C",
"4  c #731F08",
"5  c #66200C",
"6  c #69210D",
"7  c #6D210C",
"8  c #6E220D",
"9  c #6F230D",
"0  c #6E240D",
"q  c #702009",
"w  c #752109",
"e  c #73210C",
"r  c #70220D",
"t  c #72240E",
"y  c #75240D",
"u  c #77240D",
"i  c #74240E",
"p  c #75260E",
"a  c #77260E",
"s  c #79230A",
"d  c #7C230A",
"f  c #78230D",
"g  c #7A250E",
"h  c #79260E",
"j  c #7B260F",
"k  c #7D240C",
"l  c #7F270D",
"z  c #7C250E",
"x  c #7C260F",
"c  c #7F270F",
"v  c #7E280F",
"b  c #563026",
"n  c #6D392A",
"m  c #7F4332",
"M  c gray25",
"N  c #616263",
"B  c #6A6D6F",
"V  c #707274",
"C  c #747879",
"Z  c #797D7F",
"A  c #80250A",
"S  c #82260F",
"D  c #84270F",
"F  c #88270F",
"G  c #80280F",
"H  c #952A0C",
"J  c #832810",
"K  c #822910",
"L  c #862910",
"P  c #892A10",
"I  c #892B10",
"U  c #8D2B11",
"Y  c #8D2C11",
"T  c #902A10",
"R  c #912D11",
"E  c #942C11",
"W  c #942E12",
"Q  c #962F12",
"!  c #982C11",
"~  c #9A2E12",
"^  c #9D2E12",
"/  c #993013",
"(  c #9D3013",
")  c #9F3214",
"_  c #A42D0F",
"`  c #A7320F",
"'  c #B5300F",
"]  c #A12E12",
"[  c #AA2F12",
"{  c #A23013",
"}  c #A53013",
"|  c #A13314",
" . c #A63214",
".. c #A13415",
"X. c #A63414",
"o. c #A93213",
"O. c #AC3310",
"+. c #AD3113",
"@. c #AA3414",
"#. c #A93615",
"$. c #AD3414",
"%. c #AD3615",
"&. c #AF3816",
"*. c #B23113",
"=. c #B53213",
"-. c #B13314",
";. c #B23515",
":. c #B53414",
">. c #B53615",
",. c #B93711",
"<. c #B83314",
"1. c #BA3314",
"2. c #B83515",
"3. c #BA3615",
"4. c #BF3615",
"5. c #BC3716",
"6. c #B23815",
"7. c #B53916",
"8. c #B93912",
"9. c #BD3A13",
"0. c #BA3815",
"q. c #B83A17",
"w. c #BE3916",
"e. c #BD3A17",
"r. c #BA3C17",
"t. c #BE3C18",
"y. c #C43716",
"u. c #C13A17",
"i. c #C43916",
"p. c #C23C17",
"a. c #C93916",
"s. c #CD3A17",
"d. c #C03D18",
"f. c #C63D18",
"g. c #CA3E18",
"h. c #D03F18",
"j. c #9E4D36",
"k. c #CE4119",
"l. c #D7431A",
"z. c #84837F",
"x. c #7E8182",
"c. c #818486",
"v. c #838789",
"b. c #86898A",
"n. c #898A89",
"m. c #898C8D",
"M. c #908F8B",
"N. c #92908B",
"B. c #8A8E90",
"V. c #8D8F90",
"C. c #8F9193",
"Z. c #929495",
"A. c #949797",
"S. c #999996",
"D. c #969899",
"F. c #989A9B",
"G. c #9A9C9D",
"H. c #9C9F9F",
"J. c #9EA1A0",
"K. c #A0A2A3",
"L. c #A2A4A4",
"P. c #A5A6A7",
"I. c #A6A8A8",
"U. c #A8AAAA",
"Y. c #ABADAD",
"T. c #ADAFAF",
"R. c #AEB1B0",
"E. c #AFB1B1",
"W. c #B0B2B2",
"Q. c #B2B3B3",
"!. c #B3B4B4",
"~. c #B5B6B4",
"^. c #B5B7B6",
"/. c #B7B7B8",
"(. c #B5B9B8",
"). c #B6BBBC",
"_. c #B7BDBE",
"`. c #B8B9B8",
"'. c #B9BABA",
"]. c #BBBBBA",
"[. c #BABCBA",
"{. c #BABBBC",
"}. c #BBBDBC",
"|. c gray74",
" X c #C0C0BF",
".X c #B9BFC0",
"XX c #BCC2C3",
"oX c #C0C1C2",
"OX c #C2C3C2",
"+X c #C5C5C3",
"@X c #C3C4C4",
"#X c #C0C6C7",
"$X c #C6C7C6",
"%X c #C8C8C7",
"&X c #C3C7C8",
"*X c #C5CBCB",
"=X c #C8CAC9",
"-X c #CACBCA",
";X c #CCCDCB",
":X c #CBCCCC",
">X c #CDCECE",
",X c #CFD0CE",
"<X c #D0D1D1",
"1X c #D1D2D1",
"2X c #D3D5D4",
"3X c gray84",
"4X c #D8D9D9",
"5X c #DBDCDB",
"6X c #E0E1E0",
"7X c #EDEFEE",
"8X c white",
/* pixels */
"[ [ _ } ] ] ] ! T T S e 7 7 e u { +.o.o.{ { } ! E Y F g 7 u e g { $.@.o.} {  .! E Y I a 6 e t u ] @.[ ] ] ] ] ! T P z u 2 3 3 1 ",
"1.=.+.[ =.$.[ [ ^ T F e e u 7 g *.2.*.$.>.-.$.$.} E D g a g e S -.0.-.*.>.-.$.-.{ E F e e g e g -.2.' $.-.o.+.+.^ U F 7 3 e 3 2 ",
"4.1.*.*.-.1.2.-.[ ! F g g u u S >.e.>.>.-.e.0.7.>.^ P z S g g J 7.p.>.7.>.e.0.>.-.^ Y z g g e S -.y.:.:.-.4.2.:.+.! F d d e 7 3 ",
"4.4.=.1.2.1.2.$.[ ] U z g 7 3 S >.i.>.0.t.4.e.-.@.} R G g e a S 7.p.0.0.p.e.t.-.@.} Y G z e e S 7.u.7.1.2.y.2.$.] ] T z u 3 3 3 ",
"y.a.y.*.>.>.>.-.] ! J S u 7 1 g e.h.i.y.e.e.e.7.X.( I J g t 7 K e.k.p.e.e.e.e.>.X.( J S g t 6 g 2.s.u.2.2.0.2.-.] ! S z e 3 1 1 ",
"y.s.y.>.=.y.4.>.{ T U x g 3 7 g 2.g.i.8.>.u.f.u.@.R I G g g 7 x e.l.g.2.2.p.p.9.X.E Y K g q 6 g e.h.u.7.>.e.e.0.] T J g e 6 < 1 ",
"a.s.a.>.+.>.4.>.{ R U g x 7 1 g e.l.g.2.2.p.p.6.( E R I v t 7 g e.l.g.p.p.g.f.7.X./ R v v e 6 g e.l.g.4.e.e.u.$.^ T U z u < < < ",
"s.a.s.4.-.2.2.p.@.E g K g 7 1 g e.l.g.f.p.f.t.$./ E Q Y K g 6 z p.h.g.k.p.d.f.e.$./ Y S g a 1 g u.h.g.g.y.8.2.$.{ T J x 6 3 < ; ",
"a.y.y.y.-.>.>.-.@.! S J g t 1 g p.g.g.k.g.e.6.X.@./ / Y z a 0 K p.g.l.k.t.t.t.6.@./ I Q K t 5 a u.g.f.g.p.p.0.@.] E U J e 7 5 < ",
"s.a.y.y.e.e.>.@. .T I a x g 6 g f.k.g.g.g.e.6.&.../ / Y K g 0 g g.l.k.k.k.k.g.$.( @.( Y J g 0 g f.h.g.h.g.f.p.@.! { / J g 7 < 5 ",
"s.a.a.y.i.u.e.>.{ R I S t g 7 x p.k.f.f.p.0.7.@.{ X.Q Y K g a z 8.l.l.k.d.k.k.7.X...Q K z t t v d.h.h.g.e.p.e.>.X.( I x e 6 1 1 ",
"a.y.s.y.e.i.e.$.{ ( Y I g t 7 v e.k.g.k.g.7.$.7.&.@.( Y K a a J t.l.l.p.t.t.7.@.@.( Y v S a 7 K e.g.h.u.u.4.-.$. .! Y x a 2 3 1 ",
"a.a.s.y.0.u.d.7.@.! R I S a 6 g t.k.k.k.k.t.&.7.6.{ / R I S 0 z l.l.k.k.k.&.$.&.( ..Q K v g 6 z t.l.g.g.e.-.$.@./ { E J g e 1 , ",
"s.s.s.4.>.i.i.-. ./ ~ U g g 7 S p.k.g.g.k.r.k.7.../ / Y J G t K d.l.l.l.t.7.0.@.( ../ J K h 0 v d.l.l.h.p.e.0.$.X.} E I g 7 1 1 ",
"s.k.u.:.q.2.t.-. .( Y I x 0 0 x p.l.k.k.7.q.7.7.$.) / R J g g S r.l.l.g.k.k.r.$.&.) / R K t t v d.l.h.g.g.d.t.-.$.{ R J e 6 2 1 ",
"s.a.u.:.-.-.e.>. ...T I K g 7 v d.k.r.r.q.q.&.6.&.X.( R J g t K g.l.k.g.t.d.r.7.@.X./ Q K g t v f.k.k.f.0.e.t.-.@.{ R J g 7 5 1 ",
"p.y.y.8.:.-.-.$.@.! / U x g 7 v t.f.k.9.t.r.r.&.X.{ ) Q K v t G r.k.k.9.&.r.9.6.@.{ ( R v g e z e.f.f.0.6.7.>.$.} H E F e 4 5 , ",
"4.y.y.:.@.o.$.$.{ E Y S g e 7 g 7.g.k.r.6.6.7.&.@.X.Q I K a g z 7.k.k.r.&.&.7.&.$...! J K e t z 7.g.k.0.@.$.$.o.{ ( U z g 6 6 < ",
"' ' ' [ _ _ _ _ H H F d g 7 2 7 $.9.,.' ` ` $.` ! ! H A A a > s &.9.8.-.@.` $.` / E I d s q 2 w O.,.>.+._ _ } ] H H P w 4 > : : ",
"j.j.j.j.j.j.j.j.j.m m m m m j.n j.j.j.j.j.j.j.j.j.j.j.j.m m m m j.j.j.j.j.j.j.j.j.j.j.m n j.m m j.j.j.j.j.j.j.j.j.m m m m n n n ",
"R.W.~.`.'.'.'.'./.~.Q.T.Y.Y.I.Y.T.W.~.'.[.[.[.'.'.'.|. X|.|. X[.)./.`.~.[.[.|.}.|.|.|.|.~.W.W.R.T.T.R.Y.R.!.W.W.~.W.~.W.T.Y.P.J.",
"^.}.XX*X*XXX$X#XXX}.{.!.)..X!.).)..XXXXX&X&X*X*X*X#X#X%X*X;X>X*X*X*X$X#X&XXX&X*X*X*X*X$XXXXX|._.~.)._._.).XX_.XX&X&XXXXX}.XX!.R.",
"~.|.oX+X$X-X#XOX;X:X-X+X#X+X$X+X+X;X>X>X+XOX#XOX<X<X,X,X%XXX%X-X%X$X$X@X<X3X<X3X*X+XXX%X,X>X*X-X-X%X$X$X*X-X;X>X.XoX.XoXXX{.R.I.",
"~.[.OX-X-X-X$X$X|./.~.Q.W.W.W.~.~.W.`.|.+X%X-X%X|.].}. X5X>X;X;X,X,X-X$XoX|.[. X%X:X;X+X}.'./.^.~.~.~.~.~._.!.'.&X-X-X%X$XoX).W.",
"~. X@X-X-X-X4X|.& O O O O X X O O O O &  X5X5X|.& O O @ Z 8X;X,X,X,X5X@X& O O & $X5X5X X& O O O X O O O O O O & oX4X-X-X-X X].W.",
"~.oX+X*X-X-X5X{.                         X4X5X|.          I.8X*X,X,X6X X        oX6X5X X                        .X5X:X:X#X X{.T.",
"!.|. X+X$X-X4X|.                        }.3X3X|.O         O ,X7X-X,X5X XO     O @X5X5X X                         X5X>X>X+XoX|.W.",
"R.~. X@X%X%X3X.X& X X O         O O O & |.4X<X'.X           * 7X6X-X5X XO     X |.5X4X.X& O O O         O # + & OX4X&X&X+X{.'.T.",
"R.~. X+X$X$X$X+X'./.%XW.O     O R.%X}.|.+XoX<X`.X             M 7X>X4X|.O     O |.4X>X-X.X|.>X~.O     O !.>X{.{.$X:X-X@X&X.XQ.T.",
"T.[.|.OX$X#X X+X<X<X6X-XO     O +X6X<X<XoXoX<X'.O               V 7X3X|.@     O |.3X-X-X5X4X7X-XX     X :X7X3X2X&X@X&X&X+X{.W.P.",
"Y.~.{.XX XoX$XOXoXoX>X~.X     X ~.<XXX.XoXoX>XW.O     * * .       H.8XQ.O     O '.3XOX-X*X%X3X|.O     O {.1X.X-X@X X@X.X X{.Q.U.",
"Y.Q.'.|.{. X X X|.oX<X~.X     O ^.:X X|.|. X-XW.O     & 5X*       . ,X2X.     X '.2X-X+X-XoX3X[.X     X {.1X X@X X X X.X{.'.W.P.",
"T.!.).{.{.'.|.{.XX|.;XW.O     X ~.-X'.'.|.'.-X~.O     . <X>X.       * :X&     O /.3X+X+X*X+X<X/.#     O /.<XoX@X{.{.{.).).Q.T.P.",
"P.T.!./././.'.'.}.'.+XT.X     X R.>X'.~.'.'.*XW.X     O R.7XD.        M *     X '.<X@X+X$X+X,X/.O     O ~.>X{..X{./.Q.).~.T.T.L.",
"K.T.R.E.~.Q.R.!.~.~.XXT.X     O E.&X).~.~.W.*XW.X     O Q.-X7XB   .           O ~.>XXX X@XoX3X'.O     O R.$X).~.~.T.Q.Q.T.Q.I.J.",
"L.U.T.T.Y.U.Y.U.Y.T.|.I.O     X T.@XW.W.~.W.oXY.O     O R.$X|.6X* $           X ~.-X|..X{.|.#XW.X     O T. XT.R.T.T.T.T.Q.T.P.J.",
"H.P.T.U.P.L.P.P.P.P.~.K.X     X P.}.E.T.R.R.{.L.X     O R.#XQ.-X3X&           O T.-X|.|. X|.&XT.O     O L.}.Y.I.U.U.U.P.U.U.L.H.",
"F.L.J.P.L.F.F.J.H.K.T.H.O     O J./.P.P.P.U.~.J.X     X I. X~.R.<XR..         X W.$XQ.Q.).!.%XT.O     O P.~.L.P.J.J.L.P.J.L.H.F.",
"D.D.F.F.F.D.A.A.A.D.U.A.        D.T.L.L.J.K.T.D.        J.^.U.U.I.2Xm.          P.|.T.T.P.T.XXL.        H.T.D.F.D.D.H.F.J.F.D.V.",
"n.m.D.Z.C.C.V.V.Z.Z.K.V.% O O % Z.L.Z.F.S.D.P.C.% X O % A.U.J.L.K.K.;XN O X O % F.W.P.L.L.U.T.H.% O O % V.L.A.Z.V.V.V.V.D.Z.V.b.",
"c.b.m.b.b.v.c.v.n.m.m.M.b.b.b.c.m.n.n.N.N.C.Z.V.b.c.n.C.C.Z.Z.A.A.D.J.Y.Z.D.Z.A.H.D.D.F.H.F.F.F.Z.C.C.V.V.V.B.b.m.m.n.m.m.b.c.x.",
"C Z x.x.Z Z x.x.v.m.b.n.Z.m.m.m.x.z.z.z.c.m.n.n.Z.C.C.m.x.n.m.n.n.m.m.Z.J.H.H.F.C.m.C.B.V.B.B.Z.H.G.G.G.B.b.c.x.x.x.x.x.x.x.Z Z ",
"C C Z C Z Z Z x.v.b.v.v.c.x.Z Z x.x.x.c.m.b.b.m.v.c.x.x.c.x.c.b.b.v.m.m.C.C.B.Z.B.B.m.m.m.b.B.m.B.B.B.B.v.c.c.x.x.Z Z Z Z Z C C ",
"B B B B V V V C Z x.x.Z C V C C V V C Z c.c.v.x.Z C C C C C Z Z Z Z x.x.b.b.x.c.x.Z Z Z Z Z x.Z c.c.c.c.Z C C C C V V V V B B V ",
"n n n n n n n n n n b b b b b b n n n n n n m n n n b b b b b b n n n n n n n n n n b b b b b b n n n n n n n n b b b b b b b b ",
"I F g d g e e e 6 ; - = = = = = g K g g z g s g 7 5 < = = - = - z S v g v g g z 0 5 ; = = = = - g x x i g i t 4 3 ; - = = = = = ",
"! H U F D I I S z 0 5 - - - = ; J R I I J Y Y I G g 6 ; ; - - 1 I R I I I H I I F a 5 ; ; - - ; L U F L S P L K g 3 ; - - - = - ",
"] ! E E R R R I G g 6 ; 5 - - 5 R ( R Q / / ! E R I 0 , 5 ; ; 5 E ( Q Q / / / Y F K t 5 5 ; - 5 W ~ R R W Q Q P K g 3 < ; - - - ",
"-.-. .^ ^ ^ ( W P J i r 5 ; - 6 ) &.........#.) / J v 5 5 5 ; 0 ( &.X.( ..( ( Q Y J t 7 6 < ; 6 ) &.{ / ( / / E J J u 6 1 ; - ; ",
"2.4.-. .]  .X.) W U K t 7 5 < 7 X.0.r.@.( X.@.X./ I K 0 6 6 5 t &.r.6.&........./ I v u t 6 , 7  .q.&.( / ..! { E Y K a 6 < ; ; ",
"4.i.2.@.] @.$.$.^ J a d a 5 1 7 6.e.7.7.@.X.$.6.X.E g 0 g 0 5 t &.k.r.6.6...( ..{ Q I u 6 6 5 7 @.d.q.$.( { ..X./ I J g 5 5 < ; ",
"y.4.y.>.] @.$.@.( W g i t 0 ; t 6.0.6.7.X.&.6.&.../ K p a t 6 a 6.r.t.&.6.X...X...) R a 6 t < t -.t.r.0. . .@.{ ..R I g 5 5 ; ; ",
"y.4.$.>.$.$.$.@./ L S t e r 1 t 0.0.$.7.6.&.6.$...Y I g t a 6 a 7.k.7.#.&.&.X.X.) / Y v t 7 5 e e.0.0.0.-.$.$.X.] ! F i 6 5 < ; ",
"s.y.1.>.:.$. .] W g J K g t 1 a e.p.r.0.6.6.&.X...K v J v g 6 g r.k.7.#.&.6.&.@.) ( v a g t 6 a t.d.0.0.7.7.7.-.{ T J g e 5 5 ; ",
"a.y.s.y.] ] ] ! W Y K g r r 6 a e.g.k.k.&.X.....E Q J I g p t v t.g.t.t.p.6.@. .( R I g t t 7 g e.f.e.0.d.y.7.-.{ W I g 7 6 5 < ",
"y.y.s.2.@.$.&.] ~ ( Y v g r 3 g 7.k.p.p.$.@.&.$...( Q J j t 0 v 0.g.g.k.p.$...X...R R I g t 6 g 0.d.u.e.0.u.0.$.{ U I J g 3 < < ",
"y.a.l.2.-.2.-.@.] Q ~ I g e 1 g 4.g.g.d.6.0.0.6.$./ / R x a 6 g r.k.g.g.d.@.@.&.../ R I J g 6 u 2.g.g.u.2.>.>.$.@.T U I d 7 1 < ",
"a.a.y.4.2.>.>.$.( W U J a t 6 g p.g.g.0.r.0.t.2.X./ I J S g t x t.k.g.g.e.0.7.7.X.( E J g t 7 g e.l.u.i.i.e.2.>. .^ U x t 3 1 < ",
"a.s.y.1.-.-.4.-.] ! U J g 6 3 g 4.l.l.t.7.>.0.e.@.( W J g 0 r x p.l.g.g.7.-.-.@.-.( Y I g 6 7 a e.l.u.u.e.>.>.@.^ E U S r < < < ",
"a.y.i.>.-.-.@. .^ R T J t 7 5 e e.g.g.f.>.0.6.$.X.../ I g t 5 g e.g.g.p.f.6.&.X. ./ R I g t 6 a e.s.a.>.y.-. .^ ! T F F e 1 1 ; ",
"1.-.1.1.@.[  .] ! U U S t 6 1 7 -.2.e.-.@.$.$.@.{ R R J a 7 6 d >.e.7.2.6.$.$.{ / E R J e e 5 g -.e.4.:. .] ] ^ ^ U F g 7 6 < ; ",
"-.:.=.@.^ ^ [ ^ ! U F a u 3 1 t @.y.2.$.{ ] @. .../ I x g 7 6 u @.0.0.$.{ X.X.{ { E I g a 6 < 7 @.2.2.o.! ^  .^ ! U F g r 1 < ; ",
"$.[ [ ] ^ ! ^ ! U T F a 7 3 < 6  .-.$. .] ^  .( R R J x g 7 6 e  .-.-.@.) ( { { E R J g a 7 < e } *.+.} ^ ^ ] ^ T U S e 6 1 ; ; ",
"] ] ^ E T T E F F x x g 7 1 1 7 !  .] ] ! R ! T Y J J x e 6 6 7 ! X.{ { ! R / R I J D z 7 6 < 6 ! } ] ^ ! T T T F z x u 6 < ; ; "
};
