/* XPM */
static char *_b2c8a24849c49a5d4bb47967d89f75f[] = {
/* columns rows colors chars-per-pixel */
"64 64 24 1 ",
"  c None",
". c #010101",
"X c #202020",
"o c #2C2C2C",
"O c gray22",
"+ c #403018",
"@ c #543C1C",
"# c #5C4020",
"$ c #6C4824",
"% c #744C28",
"& c gray25",
"* c #484848",
"= c gray33",
"- c #646464",
"; c #7C7C7C",
": c #80502C",
"> c #885830",
", c #905C34",
"< c #9C6038",
"1 c #A0643C",
"2 c #A86840",
"3 c #B47044",
"4 c #BC7848",
"5 c gray55",
/* pixels */
"                                                                ",
"                                                                ",
"                                                                ",
"                                                                ",
"                                                                ",
"                                                                ",
"                                                                ",
"                                                                ",
"                                                                ",
"                                                                ",
"                                                                ",
"                                                                ",
"                                                                ",
"                                                                ",
"                                                                ",
"                                                                ",
"                                                                ",
"                                                                ",
"                                                                ",
"                                                                ",
"                                                                ",
"                                                                ",
"                                                                ",
"                                                                ",
"                                                                ",
"                                                                ",
"                                                                ",
"                                                                ",
"                                                                ",
"                                                                ",
"                                                                ",
"                           2:        22                         ",
"                           =2:      2:=                         ",
"                            =O::  ::O=                          ",
"                            =OooooooO=                          ",
"                            O=*oooo*=O                          ",
"                            <*Xo..oX*=                          ",
"                           :<<**..*o<$@                         ",
"                           :<3OOOOOo,$@                         ",
"                           ::=O5==;o=$@                         ",
"                            :=O=OO=O=$                          ",
"                            :22=****,:                          ",
"                            :22=****,:                          ",
"                           :,2,=====,:$                         ",
"                           :<2,=====,,:                         ",
"                          :,122-===-,=,:                        ",
"                          :<22-=-<-=-=,:                        ",
"                          :1222-<=<-<<,:                        ",
"                          :12=-<----=2,:                        ",
"                          :32:=--===-2<$                        ",
"                          :32::=***><2<#                        ",
"                           33:=O&&&O23<@                        ",
"                           34<:@OOO%24<                         ",
"                           34<:*@o+%342                         ",
"                           34<*    +332                         ",
"                           332>    2342                         ",
"                           22<>    ,331                         ",
"                           >##+    ####                         ",
"                           ,,#+     ::%                         ",
"                           ::#OOOOO*##$***==                    ",
"                              =**OoooOO******=                  ",
"                               ==*OOooooOOO*****==              ",
"                                ==*OOOooooooooOOO**===          ",
"                                  ===*************==            "
};
